<svg id="visual" viewBox="0 0 960 540" width="960" height="540" xmlns="http://www.w3.org/2000/svg" xmlns:xlink="http://www.w3.org/1999/xlink" version="1.1"><rect x="0" y="0" width="960" height="540" fill="#fff"></rect><path d="M0 322L22.8 329.2C45.7 336.3 91.3 350.7 137 347.7C182.7 344.7 228.3 324.3 274 310C319.7 295.7 365.3 287.3 411.2 292.5C457 297.7 503 316.3 548.8 324.2C594.7 332 640.3 329 686 326.7C731.7 324.3 777.3 322.7 823 321.2C868.7 319.7 914.3 318.3 937.2 317.7L960 317L960 541L937.2 541C914.3 541 868.7 541 823 541C777.3 541 731.7 541 686 541C640.3 541 594.7 541 548.8 541C503 541 457 541 411.2 541C365.3 541 319.7 541 274 541C228.3 541 182.7 541 137 541C91.3 541 45.7 541 22.8 541L0 541Z" fill="#00dd00"></path><path d="M0 362L22.8 356.7C45.7 351.3 91.3 340.7 137 341.5C182.7 342.3 228.3 354.7 274 367.3C319.7 380 365.3 393 411.2 385.5C457 378 503 350 548.8 343.7C594.7 337.3 640.3 352.7 686 357.7C731.7 362.7 777.3 357.3 823 363.7C868.7 370 914.3 388 937.2 397L960 406L960 541L937.2 541C914.3 541 868.7 541 823 541C777.3 541 731.7 541 686 541C640.3 541 594.7 541 548.8 541C503 541 457 541 411.2 541C365.3 541 319.7 541 274 541C228.3 541 182.7 541 137 541C91.3 541 45.7 541 22.8 541L0 541Z" fill="#00cc44"></path><path d="M0 407L22.8 400.2C45.7 393.3 91.3 379.7 137 378.8C182.7 378 228.3 390 274 397.7C319.7 405.3 365.3 408.7 411.2 408.7C457 408.7 503 405.3 548.8 406C594.7 406.7 640.3 411.3 686 411C731.7 410.7 777.3 405.3 823 409.7C868.7 414 914.3 428 937.2 435L960 442L960 541L937.2 541C914.3 541 868.7 541 823 541C777.3 541 731.7 541 686 541C640.3 541 594.7 541 548.8 541C503 541 457 541 411.2 541C365.3 541 319.7 541 274 541C228.3 541 182.7 541 137 541C91.3 541 45.7 541 22.8 541L0 541Z" fill="#00ba5e"></path><path d="M0 470L22.8 463.5C45.7 457 91.3 444 137 443.2C182.7 442.3 228.3 453.7 274 452.5C319.7 451.3 365.3 437.7 411.2 432.5C457 427.3 503 430.7 548.8 433.7C594.7 436.7 640.3 439.3 686 442.2C731.7 445 777.3 448 823 449.8C868.7 451.7 914.3 452.3 937.2 452.7L960 453L960 541L937.2 541C914.3 541 868.7 541 823 541C777.3 541 731.7 541 686 541C640.3 541 594.7 541 548.8 541C503 541 457 541 411.2 541C365.3 541 319.7 541 274 541C228.3 541 182.7 541 137 541C91.3 541 45.7 541 22.8 541L0 541Z" fill="#00a76d"></path><path d="M0 458L22.8 465.7C45.7 473.3 91.3 488.7 137 492C182.7 495.3 228.3 486.7 274 484.3C319.7 482 365.3 486 411.2 490.3C457 494.7 503 499.3 548.8 494.2C594.7 489 640.3 474 686 470.7C731.7 467.3 777.3 475.7 823 478.8C868.7 482 914.3 480 937.2 479L960 478L960 541L937.2 541C914.3 541 868.7 541 823 541C777.3 541 731.7 541 686 541C640.3 541 594.7 541 548.8 541C503 541 457 541 411.2 541C365.3 541 319.7 541 274 541C228.3 541 182.7 541 137 541C91.3 541 45.7 541 22.8 541L0 541Z" fill="#009473"></path></svg>